<svg xmlns="http://www.w3.org/2000/svg" viewBox="0 0 175 156.25"><defs><style>.cls-1{fill:#fff;}</style></defs><title>资源 1</title><g id="图层_2" data-name="图层 2"><g id="图层_1-2" data-name="图层 1"><path class="cls-1" d="M99.7,141a64.19,64.19,0,0,0,48-41h-4a6.25,6.25,0,0,1-6.25-6.25V62.5a6.25,6.25,0,0,1,6.25-6.25h4a64.09,64.09,0,0,0-120.46,0h4A6.25,6.25,0,0,1,37.5,62.5V93.75A6.25,6.25,0,0,1,31.25,100h-25A6.25,6.25,0,0,1,0,93.75V62.5a6.25,6.25,0,0,1,6.25-6.25h6.23a78.15,78.15,0,0,1,150,0h6.23A6.25,6.25,0,0,1,175,62.5V93.75a6.25,6.25,0,0,1-6.25,6.25h-6.23a78.16,78.16,0,0,1-75,56.25A12.5,12.5,0,1,1,99.7,141ZM150,68.75V87.5h12.5V68.75Zm-137.5,0V87.5H25V68.75Z"/></g></g></svg>