<?xml version="1.0" encoding="utf-8"?>
<!-- Generator: Adobe Illustrator 24.0.0, SVG Export Plug-In . SVG Version: 6.00 Build 0)  -->
<svg version="1.1" id="图层_1" xmlns="http://www.w3.org/2000/svg" xmlns:xlink="http://www.w3.org/1999/xlink" x="0px" y="0px"
	 viewBox="0 0 200 200" style="enable-background:new 0 0 200 200;" xml:space="preserve">
<style type="text/css">
	.st0{fill:#707070;}
	.st1{display:none;opacity:0.43;}
	.st2{display:inline;fill:#666666;}
</style>
<g>
	<path class="st0" d="M175.1,49.8c-1.6-4.3-4.9-7.7-9.2-9.4c-1.8-0.7-131.3-0.7-132.9-0.1c-4.4,1.6-7.9,5.1-9.5,9.5
		c-0.6,1.6-0.6,101.7,0,103.3c1.6,4.4,5.1,7.9,9.5,9.5c1.6,0.6,131.2,0.5,132.9-0.1c4.2-1.7,7.6-5.1,9.2-9.4
		C175.7,151.5,175.7,51.5,175.1,49.8z M32.7,53.2c0.6-1.7,2-3.1,3.7-3.7c0.7-0.3,124.9-0.3,125.6-0.1c1.7,0.5,3.1,1.8,3.8,3.4
		c0.2,0.3,0.3,24.9,0.3,49.3l0,0l-0.2,0.1l-59,27.8L77.8,103c-0.3-0.3-0.4-0.4-0.8-0.6c-1-0.6-2.1-0.8-3.3-0.7
		c-0.5,0.1-0.9,0.2-1.4,0.4l-39.8,18.7C32.5,92.5,32.6,53.6,32.7,53.2z M165.9,149.8c-0.6,1.6-1.8,2.9-3.4,3.6
		c-0.6,0.3-125.5,0.3-126.1,0.1c-1.6-0.6-3-1.9-3.6-3.6c-0.1-0.2-0.1-7.8-0.2-18.7c0.1,0,0.3,0,0.4,0c0.5-0.1,0.6-0.1,1-0.2l0.5-0.2
		l39-18.4l29.1,26.9c1.2,1.1,2.9,1.6,4.5,1.2c0.4-0.1,0.5-0.2,0.9-0.3l58-27.3C166.1,132.6,166,149.5,165.9,149.8z"/>
	<path class="st0" d="M138.1,92c4.3,1.7,9.1,1.6,13.3-0.3c5-2.3,8.6-6.8,9.7-12.1c0.7-3.4,0.4-6.9-1-10.1c-1.6-3.8-4.6-6.9-8.3-8.7
		c-2.2-1.1-4.5-1.6-7-1.7c-3.1-0.1-6.2,0.7-8.9,2.3c-4.5,2.6-7.6,7.1-8.4,12.2c-0.3,1.9-0.3,3.8,0.1,5.6
		C128.6,84.9,132.6,89.8,138.1,92z M144.2,68.8c4-0.1,7.3,3.1,7.4,7.1c0.1,4-3.1,7.3-7.1,7.4c-4,0.1-7.3-3.1-7.4-7.1
		C137,72.3,140.2,68.9,144.2,68.8z"/>
</g>
<g class="st1">
	<path class="st2" d="M118,167.8H37.6c-1.3,0-2.1-0.8-2.1-2.1V32.4c0-1.3,0.8-2.1,2.1-2.1H98v31.3c0,7.9,6.7,14.6,14.6,14.6h31.3
		v7.5c0,3.3,2.9,6.3,6.3,6.3c3.3,0,6.3-2.9,6.3-6.3V57.4c0-1.7-0.8-3.3-1.7-4.6l-33.3-33.3c-1.3-1.3-2.9-1.7-4.6-1.7H37.6
		c-7.9,0-14.6,6.7-14.6,14.6v133.3c0,7.9,6.7,14.6,14.6,14.6H118c3.3,0,6.3-2.9,6.3-6.3C124.3,170.7,121.4,167.8,118,167.8z
		 M110.5,30.3h3.8l29.6,30v3.3h-31.3c-1.3,0-2.1-0.8-2.1-2.1V30.3z"/>
	<path class="st2" d="M170.5,103.2h-20.8c-1.7,0-3.3,0.4-4.2,1.3c-1.3,0.8-1.7,2.5-1.7,4.2v40.8c0,1.3,0.4,2.5,1.3,3.3
		c0.8,1.3,2.1,1.7,4.2,1.7c1.7,0,3.3-0.4,4.2-1.7c0.4-0.8,1.3-1.7,1.3-3.8v-16.7h14.2c2.5,0,4.6-1.3,5-3.3c0.4-1.7,0.4-2.9,0-3.3
		c-0.4-0.8-1.3-3.3-5-3.3h-14.6v-9.6h15.8c1.7,0,2.9-0.4,3.8-0.8c0.8-0.4,1.7-1.7,1.7-4.2C176,105.3,173.9,103.2,170.5,103.2z"/>
	<path class="st2" d="M134.7,110.7L134.7,110.7c-1.7-2.5-4.2-4.2-6.7-5.8c-2.9-0.8-6.3-1.7-10-1.7H106c-1.7,0-3.3,0-4.6,1.7
		c-0.4,0.8-0.8,2.1-0.8,3.8V149c0,1.7,0.4,2.9,0.8,3.8c1.3,1.7,2.9,1.7,4.6,1.7h12.5c3.8,0,6.7-0.8,9.6-2.1c2.5-1.3,5-3.3,6.7-5.8
		c1.7-2.5,2.9-5,3.8-8.3c0.8-2.9,1.3-6.3,1.3-9.6c0-3.3-0.4-6.7-1.3-9.6C137.6,116.1,136.4,113.2,134.7,110.7z M126.4,140.7
		c-1.7,2.5-4.2,3.8-7.5,3.8h-7.5v-31.3h5.4c4.2,0,7.5,1.3,9.2,3.8c2.1,2.5,2.9,6.7,2.9,11.7C129.3,134,128,137.8,126.4,140.7z"/>
	<path class="st2" d="M79.7,103.2H69.3c-2.5,0-3.8,0.4-5,1.3c-1.3,0.8-1.7,2.5-1.7,4.6v40.4c0,1.3,0.4,2.5,1.3,3.8
		c0.8,0.8,2.1,1.7,4.2,1.7s3.3-0.8,4.2-1.7c0.8-0.8,1.3-2.1,1.3-3.8V137h6.3c11.3,0,17.5-5.8,17.5-17.1c0-5.4-1.7-10-4.6-12.5
		C89.7,104.5,85.5,103.2,79.7,103.2z M84.7,125.3c-0.8,0.8-2.9,1.7-5.4,1.7H73v-13.8h6.3c2.5,0,4.2,0.4,5.4,1.7
		c1.3,0.8,1.7,2.5,1.7,5S86,124.5,84.7,125.3z"/>
</g>
</svg>
