<?xml version="1.0" encoding="utf-8"?>
<!-- Generator: Adobe Illustrator 24.0.0, SVG Export Plug-In . SVG Version: 6.00 Build 0)  -->
<svg version="1.1" id="图层_1" xmlns="http://www.w3.org/2000/svg" xmlns:xlink="http://www.w3.org/1999/xlink" x="0px" y="0px"
	 viewBox="0 0 200 200" style="enable-background:new 0 0 200 200;" xml:space="preserve">
<style type="text/css">
	.st0{fill:#707070;}
	.st1{display:none;opacity:0.43;}
	.st2{display:inline;fill:#666666;}
</style>
<g>
	<path class="st0" d="M150.3,162.9H48.9v-12.7H36.2v12.7c0,7,5.7,12.7,12.7,12.7h101.4c7,0,12.7-5.7,12.7-12.7v-12.7h-12.7V162.9z"
		/>
	<path class="st0" d="M162.9,74.2v-7.6c0-3.2-1.3-6.3-3.8-8.9l-30.4-30.4c-1.9-2.5-5.1-3.8-8.9-3.8h-71c-7,0-12.7,5.7-12.7,12.7v38
		c-7,0-12.7,5.7-12.7,12.7v50.7c0,7,5.7,12.7,12.7,12.7h126.8c7,0,12.7-5.7,12.7-12.7V86.9C175.6,79.9,169.9,74.2,162.9,74.2z
		 M48.8,36.2h69.7c0.6,0.6,2.5,2.5,4.4,5.1c8.9,8.2,24.7,24.1,27.3,26.6v6.3H48.8V36.2z M36.2,137.6V86.9h126.8v50.7H36.2z"/>
	<path class="st0" d="M129.4,93.9H116v37.4h8.9v-12.7h4.4c8.2,0,15.2-3.8,15.2-12.7C144.6,96.4,137.6,93.9,129.4,93.9z M129.3,111.6
		h-4.4h0v-10.8h3.8c4.4,0,7,1.3,7,5.1S133.8,111.6,129.3,111.6z"/>
	<polygon class="st0" points="66,100.8 80.5,100.8 64.1,125.5 64.1,131.2 91.9,131.2 91.9,123.6 75.5,123.6 91.9,98.9 91.9,93.2 
		66,93.2 	"/>
	<rect x="98.3" y="93.2" class="st0" width="8.9" height="38"/>
</g>
<g class="st1">
	<path class="st2" d="M118,167.8H37.6c-1.3,0-2.1-0.8-2.1-2.1V32.4c0-1.3,0.8-2.1,2.1-2.1H98v31.3c0,7.9,6.7,14.6,14.6,14.6h31.3
		v7.5c0,3.3,2.9,6.3,6.3,6.3c3.3,0,6.3-2.9,6.3-6.3V57.4c0-1.7-0.8-3.3-1.7-4.6l-33.3-33.3c-1.3-1.3-2.9-1.7-4.6-1.7H37.6
		c-7.9,0-14.6,6.7-14.6,14.6v133.3c0,7.9,6.7,14.6,14.6,14.6H118c3.3,0,6.3-2.9,6.3-6.3C124.3,170.7,121.4,167.8,118,167.8z
		 M110.5,30.3h3.8l29.6,30v3.3h-31.3c-1.3,0-2.1-0.8-2.1-2.1V30.3z"/>
	<path class="st2" d="M170.5,103.2h-20.8c-1.7,0-3.3,0.4-4.2,1.3c-1.3,0.8-1.7,2.5-1.7,4.2v40.8c0,1.3,0.4,2.5,1.3,3.3
		c0.8,1.3,2.1,1.7,4.2,1.7c1.7,0,3.3-0.4,4.2-1.7c0.4-0.8,1.3-1.7,1.3-3.8v-16.7h14.2c2.5,0,4.6-1.3,5-3.3c0.4-1.7,0.4-2.9,0-3.3
		c-0.4-0.8-1.3-3.3-5-3.3h-14.6v-9.6h15.8c1.7,0,2.9-0.4,3.8-0.8c0.8-0.4,1.7-1.7,1.7-4.2C176,105.3,173.9,103.2,170.5,103.2z"/>
	<path class="st2" d="M134.7,110.7L134.7,110.7c-1.7-2.5-4.2-4.2-6.7-5.8c-2.9-0.8-6.3-1.7-10-1.7H106c-1.7,0-3.3,0-4.6,1.7
		c-0.4,0.8-0.8,2.1-0.8,3.8V149c0,1.7,0.4,2.9,0.8,3.8c1.3,1.7,2.9,1.7,4.6,1.7h12.5c3.8,0,6.7-0.8,9.6-2.1c2.5-1.3,5-3.3,6.7-5.8
		c1.7-2.5,2.9-5,3.8-8.3c0.8-2.9,1.3-6.3,1.3-9.6c0-3.3-0.4-6.7-1.3-9.6C137.6,116.1,136.4,113.2,134.7,110.7z M126.4,140.7
		c-1.7,2.5-4.2,3.8-7.5,3.8h-7.5v-31.3h5.4c4.2,0,7.5,1.3,9.2,3.8c2.1,2.5,2.9,6.7,2.9,11.7C129.3,134,128,137.8,126.4,140.7z"/>
	<path class="st2" d="M79.7,103.2H69.3c-2.5,0-3.8,0.4-5,1.3c-1.3,0.8-1.7,2.5-1.7,4.6v40.4c0,1.3,0.4,2.5,1.3,3.8
		c0.8,0.8,2.1,1.7,4.2,1.7s3.3-0.8,4.2-1.7c0.8-0.8,1.3-2.1,1.3-3.8V137h6.3c11.3,0,17.5-5.8,17.5-17.1c0-5.4-1.7-10-4.6-12.5
		C89.7,104.5,85.5,103.2,79.7,103.2z M84.7,125.3c-0.8,0.8-2.9,1.7-5.4,1.7H73v-13.8h6.3c2.5,0,4.2,0.4,5.4,1.7
		c1.3,0.8,1.7,2.5,1.7,5S86,124.5,84.7,125.3z"/>
</g>
</svg>
