<svg xmlns="http://www.w3.org/2000/svg" viewBox="0 0 13 13"><defs><style>.cls-1{fill:#666;}</style></defs><title>资源 1</title><g id="图层_2" data-name="图层 2"><g id="图层_1-2" data-name="图层 1"><g id="图层_2-2" data-name="图层 2"><g id="图层_1-2-2" data-name="图层 1-2"><path class="cls-1" d="M12.62,4.93C11.35,3.87,9.54,2.29,7.23.27a1.12,1.12,0,0,0-1.46,0c-2.31,2-4.12,3.6-5.39,4.66a1.19,1.19,0,0,0-.38.8A1.06,1.06,0,0,0,1.05,6.79h.69V12.2a.79.79,0,0,0,.78.8H4.91a.8.8,0,0,0,.8-.79h0V9.08H7.29V12.2a.79.79,0,0,0,.78.8h2.39a.8.8,0,0,0,.8-.79h0V6.79H12a1,1,0,0,0,1.05-1,1.07,1.07,0,0,0-.38-.82Zm-.67.9H11.1a.79.79,0,0,0-.8.79h0V12H8.24V9a.79.79,0,0,0-.77-.81H5.55a.79.79,0,0,0-.79.79v3.14H2.7V6.63a.79.79,0,0,0-.78-.8H1.05A.09.09,0,0,1,1,5.76v0s0-.06,0-.09C2.25,4.57,4.06,3,6.37,1a.16.16,0,0,1,.22,0h0C8.91,3,10.72,4.57,12,5.63c0,0,0,0,0,.07S12,5.83,12,5.83Z"/></g></g></g></g></svg>